<svg width="32" height="32" viewBox="0 0 32 32" fill="none" xmlns="http://www.w3.org/2000/svg">
<g clip-path="url(#clip0_4492_2052)">
<path d="M0 16C0 7.16343 7.16343 0 16 0C24.8366 0 32 7.16343 32 16C32 24.8366 24.8366 32 16 32C7.16343 32 0 24.8366 0 16Z" fill="#333333"/>
<path fill-rule="evenodd" clip-rule="evenodd" d="M15.6762 0C15.6006 6.58251 15.1702 10.2664 12.7183 12.7183C10.2664 15.1702 6.58251 15.6006 0 15.6762V16.6315C6.58251 16.707 10.2664 17.1375 12.7183 19.5894C15.1317 22.0028 15.5866 25.6099 15.6724 32H16.6353C16.721 25.6099 17.1759 22.0028 19.5894 19.5894C22.0028 17.1759 25.6099 16.721 32 16.6353V15.6723C25.6099 15.5866 22.0028 15.1317 19.5894 12.7183C17.1375 10.2664 16.707 6.58251 16.6315 0H15.6762Z" fill="white"/>
</g>
<defs>
<clipPath id="clip0_4492_2052">
<rect width="32" height="32" fill="white"/>
</clipPath>
</defs>
</svg>
