<svg width="25" height="24" viewBox="0 0 25 24" fill="none" xmlns="http://www.w3.org/2000/svg">
<path d="M3.5 13.0001H9.5V11.0001H3.5V1.84611C3.50001 1.75922 3.52267 1.67384 3.56573 1.59838C3.6088 1.52291 3.67078 1.45997 3.74558 1.41576C3.82037 1.37155 3.9054 1.34759 3.99227 1.34625C4.07915 1.34491 4.16487 1.36623 4.241 1.40811L22.703 11.5621C22.7814 11.6053 22.8468 11.6687 22.8923 11.7457C22.9378 11.8228 22.9618 11.9106 22.9618 12.0001C22.9618 12.0896 22.9378 12.1774 22.8923 12.2545C22.8468 12.3315 22.7814 12.3949 22.703 12.4381L4.241 22.5921C4.16487 22.634 4.07915 22.6553 3.99227 22.654C3.9054 22.6526 3.82037 22.6287 3.74558 22.5844C3.67078 22.5402 3.6088 22.4773 3.56573 22.4018C3.52267 22.3264 3.50001 22.241 3.5 22.1541V13.0001Z" fill="white"/>
</svg>
