<svg width="221" height="50" viewBox="0 0 221 50" fill="none" xmlns="http://www.w3.org/2000/svg">
<rect width="221" height="50" fill="#818181"/>
<g clip-path="url(#clip0_0_1)">
<rect width="1440" height="2283" transform="translate(-1099 -2021)" fill="white"/>
<rect width="1440" height="302" transform="translate(-1099 -40)" fill="#2963A3"/>
<g clip-path="url(#clip1_0_1)">
<path d="M83.2307 23.751C86.2668 19.2628 87.1299 15.3838 85.7388 13.9927C85.3022 13.5662 84.6421 13.3428 83.779 13.3428C81.8801 13.3428 79.0775 14.409 75.9805 16.5008C77.2701 17.4959 78.5597 18.623 79.829 19.8923C81.0983 21.1616 82.2355 22.4512 83.2205 23.7408L83.2307 23.751Z" fill="white"/>
<path d="M69.646 19.9021C70.9152 18.6328 72.2049 17.4955 73.4945 16.5105C70.3974 14.4187 67.5948 13.3525 65.6959 13.3525C64.8429 13.3525 64.1728 13.5658 63.7361 14.0024C62.345 15.3936 63.2081 19.2624 66.2442 23.7607C67.2394 22.4711 68.3767 21.1815 69.6358 19.9122L69.646 19.9021Z" fill="white"/>
<path d="M82.3354 24.9998C81.3403 23.6695 80.1624 22.2987 78.8017 20.938C77.441 19.5773 76.0702 18.3994 74.74 17.4043C73.4098 18.3994 72.0389 19.5773 70.6782 20.938C69.3176 22.2987 68.1397 23.6695 67.1445 24.9998C68.1397 26.33 69.3176 27.7008 70.6782 29.0615C72.0389 30.4222 73.4098 31.6001 74.74 32.5952C76.0702 31.6001 77.441 30.4222 78.8017 29.0615C80.1624 27.7008 81.3403 26.33 82.3354 24.9998Z" fill="white"/>
<path d="M66.256 26.249C63.2198 30.7372 62.3567 34.6162 63.7478 36.0073C65.139 37.3985 69.0078 36.5354 73.5062 33.4891C72.2166 32.4939 70.927 31.3567 69.6577 30.0975C68.3884 28.8282 67.2511 27.5386 66.2661 26.249H66.256Z" fill="white"/>
<path d="M52.0269 0H12.2422C5.33723 0 -0.257812 5.59505 -0.257812 12.5V37.5C-0.257812 44.405 5.33723 50 12.2422 50H87.2422C94.1471 50 99.7422 44.405 99.7422 37.5V0H52.0269ZM49.7422 48.5378H12.2422C6.15974 48.5378 1.20441 43.5825 1.20441 37.5V12.5C1.20441 6.41755 6.15974 1.46223 12.2422 1.46223H49.7422V48.5378ZM86.7751 37.0329C86.0541 37.7539 85.0184 38.0991 83.7897 38.0991C81.3628 38.0991 78.1236 36.7689 74.7422 34.3928C71.3608 36.7689 68.1216 38.0991 65.6947 38.0991C64.4558 38.0991 63.4302 37.7539 62.7093 37.0329C60.5667 34.8903 61.7548 30.1076 65.3393 25C61.7548 19.8924 60.5667 15.1097 62.7093 12.9671C64.8519 10.8245 69.6346 12.0126 74.7422 15.5971C79.8498 12.0126 84.6325 10.8245 86.7751 12.9671C88.9177 15.1097 87.7296 19.8924 84.1451 25C87.7296 30.1076 88.9177 34.8903 86.7751 37.0329Z" fill="white"/>
<path d="M79.8407 30.0975C78.5714 31.3668 77.2818 32.5041 75.9922 33.4891C80.4804 36.5252 84.3594 37.3883 85.7505 36.0073C87.1417 34.6162 86.2785 30.7474 83.2424 26.249C82.2473 27.5386 81.11 28.8282 79.8508 30.0975H79.8407Z" fill="white"/>
<path d="M10.2926 15.2113C8.95222 16.8867 8.35312 19.1715 8.76945 21.0297C9.84581 25.8429 14.3137 26.6146 17.5936 27.0411C20.1829 27.3762 22.6606 27.8534 22.5997 30.1585C22.5286 32.5549 19.8275 33.1438 18.0505 33.1438C13.4303 33.1438 13.278 29.732 13.278 29.732H8.3125C8.38358 31.0114 8.76945 33.0728 10.3535 34.8396C12.0798 36.7791 14.6793 37.7539 18.0607 37.7539C20.6602 37.7539 23.0261 36.9111 24.7118 35.4083V37.4696H29.3421V31.5699L30.977 29.7726L35.6582 37.4696H41.0501L34.2365 26.2084L41.0501 18.745H35.0489L29.3421 25.0001V12.5001H24.7118V15.526C24.5595 15.3331 24.397 15.1402 24.2244 14.9472C22.5387 13.1601 20.1119 12.2563 17.0046 12.2563C13.4201 12.2563 11.3791 13.8607 10.2926 15.2113ZM17.0859 16.5923C19.1675 16.5923 21.2491 17.0594 22.0412 19.9533H24.7016V24.3806C21.3811 21.6491 14.1716 23.3652 13.3998 19.9635C12.9937 18.1763 14.7707 16.5923 17.0859 16.5923Z" fill="white"/>
<path d="M111.538 34.3421C111.852 34.4437 112.208 34.4944 112.624 34.4944C113.142 34.4944 113.558 34.3421 113.873 34.0273C114.188 33.7125 114.391 33.2962 114.493 32.8393L107.902 18.8872H112.289L116.513 28.8994L120.22 18.8872H124.393L118.453 32.6362C117.671 34.4538 116.869 35.8043 115.985 36.6573C115.102 37.5407 114.147 37.9774 113.081 37.9774C112.716 37.9774 112.431 37.9774 112.198 37.9266C111.934 37.8961 111.731 37.8454 111.548 37.7946L111.05 37.6423C110.918 37.5915 110.786 37.5407 110.664 37.5103V33.9867C110.898 34.139 111.182 34.271 111.517 34.3523L111.538 34.3421Z" fill="white"/>
<path d="M131.543 32.2707C131.279 32.3519 130.995 32.4027 130.69 32.4737C130.375 32.5245 130.04 32.5753 129.705 32.6058C129.37 32.6565 129.035 32.6565 128.72 32.6565C127.918 32.6565 127.238 32.5753 126.618 32.4534C126.019 32.3011 125.501 32.0879 125.085 31.7833C124.669 31.4685 124.354 31.0521 124.151 30.5343C123.948 30.0367 123.836 29.4173 123.836 28.6963V23.7207H127.41V27.9957C127.41 28.3815 127.461 28.7268 127.563 28.9502C127.644 29.2142 127.796 29.4173 127.999 29.5696C128.202 29.7219 128.436 29.8336 128.751 29.8844C129.065 29.9352 129.421 29.9656 129.837 29.9656C130.457 29.9656 130.924 29.9149 131.289 29.8133C131.655 29.6813 131.939 29.5493 132.142 29.4274V23.7207H135.717V37.5205H132.142V32.0777C131.99 32.1285 131.777 32.2097 131.523 32.2808L131.543 32.2707Z" fill="white"/>
<path d="M149.588 35.7945C149.619 36.0585 149.69 36.2921 149.771 36.4139C149.852 36.5967 149.923 36.6983 150.035 36.7795C150.137 36.8607 150.218 36.9115 150.35 36.9318V37.5005H146.38L146.176 36.8506C146.075 36.5866 146.044 36.2819 146.044 35.8859L145.242 36.6881C144.958 36.9217 144.674 37.1247 144.339 37.3075C144.003 37.4903 143.638 37.6426 143.201 37.7442C142.765 37.8457 142.247 37.8965 141.648 37.8965C141.049 37.8965 140.46 37.8152 139.932 37.6325C139.414 37.4497 138.977 37.1654 138.581 36.8303C138.215 36.4647 137.911 36.0281 137.698 35.4797C137.495 34.9619 137.383 34.3425 137.383 33.6418C137.383 33.0732 137.464 32.5553 137.647 32.0577C137.83 31.5602 138.083 31.154 138.398 30.7884C138.733 30.4229 139.129 30.1182 139.586 29.8847C140.053 29.6207 140.571 29.4684 141.17 29.3871L144.674 28.8693C144.806 28.8388 144.938 28.8388 145.09 28.788C145.242 28.7576 145.374 28.7068 145.506 28.6052C145.638 28.524 145.74 28.4225 145.821 28.2905C145.902 28.1381 145.953 27.9554 145.953 27.7218C145.953 27.4883 145.902 27.2852 145.852 27.1024C145.77 26.8993 145.648 26.7368 145.486 26.6048C145.303 26.4525 145.1 26.3408 144.816 26.2697C144.531 26.1885 144.166 26.1682 143.75 26.1682C143.252 26.1682 142.897 26.219 142.612 26.3002C142.298 26.4018 142.064 26.5642 141.912 26.7165C141.729 26.8993 141.597 27.1024 141.526 27.3156L141.373 28.0671H137.799C137.799 27.9148 137.83 27.6812 137.88 27.3664C137.931 27.0821 138.033 26.747 138.195 26.3814C138.327 26.0464 138.561 25.6808 138.815 25.3152C139.079 24.9497 139.414 24.6146 139.881 24.2998C140.297 24.0155 140.845 23.7515 141.465 23.5687C142.084 23.3859 142.815 23.2844 143.699 23.2539C144.917 23.2539 145.933 23.3859 146.705 23.6195C147.456 23.8835 148.055 24.2186 148.492 24.6044C148.908 25.0208 149.192 25.4574 149.345 25.955C149.477 26.4525 149.548 26.9399 149.548 27.4375V34.7486C149.548 35.165 149.578 35.5 149.629 35.7641L149.588 35.7945ZM145.283 31.0728C145.049 31.1743 144.765 31.2758 144.399 31.3368L143.445 31.5195C143.029 31.6008 142.663 31.6719 142.358 31.7836C142.044 31.8851 141.79 32.0171 141.577 32.1694C141.373 32.3522 141.211 32.5553 141.109 32.7888C141.008 33.0224 140.957 33.3067 140.957 33.6723C140.957 33.9566 141.008 34.2206 141.089 34.4237C141.191 34.6572 141.323 34.8096 141.505 34.972C141.658 35.104 141.841 35.236 142.054 35.2868C142.287 35.368 142.521 35.3883 142.785 35.3883C142.917 35.3883 143.1 35.3579 143.303 35.3376C143.506 35.3071 143.719 35.2563 143.973 35.1853C144.207 35.0837 144.44 34.9822 144.674 34.8197C144.907 34.6877 145.11 34.4846 145.293 34.2511C145.496 34.0175 145.659 33.7332 145.76 33.3676C145.862 33.0325 145.943 32.6365 145.943 32.1796V30.7783C145.74 30.9103 145.506 31.0118 145.293 31.0931L145.283 31.0728Z" fill="white"/>
<path d="M159.599 27.6298C159.498 27.3455 159.335 27.112 159.163 26.9292C158.959 26.7261 158.726 26.5941 158.462 26.4926C158.178 26.4113 157.842 26.3606 157.446 26.3606C156.847 26.3606 156.38 26.4926 156.025 26.7769C155.659 27.0612 155.375 27.3963 155.192 27.8126C154.989 28.2493 154.877 28.7164 154.806 29.2139C154.756 29.7115 154.705 30.1684 154.705 30.6152C154.705 31.062 154.735 31.5494 154.786 32.0368C154.837 32.5547 154.938 32.9913 155.152 33.4077C155.334 33.824 155.588 34.1896 155.984 34.4434C156.35 34.7277 156.837 34.8597 157.467 34.8597C157.883 34.8597 158.249 34.7785 158.553 34.5957C158.838 34.4434 159.102 34.2302 159.305 33.9966C159.508 33.7326 159.67 33.4788 159.772 33.1944C159.853 32.9304 159.904 32.6766 159.904 32.443H163.641C163.641 32.6766 163.61 32.9609 163.539 33.3264C163.438 33.7123 163.305 34.0779 163.123 34.4942C162.94 34.8801 162.686 35.2964 162.392 35.7127C162.057 36.129 161.691 36.4946 161.224 36.7992C160.757 37.1343 160.239 37.3983 159.619 37.6014C159 37.8045 158.269 37.9162 157.467 37.9162C156.431 37.9162 155.497 37.7639 154.695 37.4491C153.892 37.114 153.212 36.6469 152.674 36.0275C152.126 35.4081 151.709 34.6567 151.425 33.7225C151.141 32.8187 150.988 31.7728 150.988 30.6152C150.988 29.4576 151.141 28.3813 151.455 27.4775C151.77 26.5941 152.207 25.8224 152.775 25.1928C153.344 24.5734 154.024 24.1063 154.827 23.7915C155.609 23.4564 156.512 23.2939 157.477 23.2939C157.893 23.2939 158.33 23.3447 158.797 23.3955C159.234 23.4463 159.68 23.5783 160.117 23.7306C160.554 23.9134 160.97 24.1164 161.386 24.3805C161.772 24.6445 162.138 24.9796 162.473 25.3654C162.788 25.7513 163.041 26.2184 163.255 26.7363C163.458 27.2541 163.59 27.8736 163.641 28.5742H159.904C159.823 28.2086 159.751 27.8736 159.619 27.6197L159.599 27.6298Z" fill="white"/>
<path d="M176.109 23.7104V26.6146H171.935V37.5102H168.361V26.6146H164.188V23.7104H176.119H176.109Z" fill="white"/>
<path d="M186.061 28.6963V23.7207H189.635V37.5205H186.061V31.6106H180.801V37.5205H177.227V23.7207H180.801V28.6963H186.061Z" fill="white"/>
<path d="M195.664 32.2198L200.701 23.7104H204.458V37.5102H200.883V29.1836H200.833L195.959 37.5102H192.039V23.7104H195.613V32.2198H195.664Z" fill="white"/>
<path d="M215.651 23.7103H220.423L214.717 29.4374L220.657 37.5H215.986L211.944 31.6612L210.492 33.1437V37.5H206.918V23.7002H210.492V28.9398L215.651 23.7002V23.7103Z" fill="white"/>
</g>
</g>
<defs>
<clipPath id="clip0_0_1">
<rect width="1440" height="2283" fill="white" transform="translate(-1099 -2021)"/>
</clipPath>
<clipPath id="clip1_0_1">
<rect width="221" height="50" fill="white"/>
</clipPath>
</defs>
</svg>
