<svg width="51" height="36" viewBox="0 0 51 36" fill="none" xmlns="http://www.w3.org/2000/svg">
<g clip-path="url(#clip0_4492_2245)">
<path d="M13.3302 1.2804C13.3303 1.11943 13.2953 0.960409 13.2279 0.814578C13.1604 0.668747 13.0621 0.539666 12.9398 0.436463C12.6952 0.205117 12.3717 0.0779848 12.0367 0.0815367C11.8038 0.0777518 11.5746 0.140646 11.3756 0.262943C11.1562 0.404074 10.9896 0.614972 10.902 0.862374L6.73786 10.2114L2.56334 0.84397C2.47188 0.611079 2.31107 0.412633 2.10314 0.276053C1.89521 0.139474 1.65042 0.0715042 1.40259 0.0815367C1.04757 0.079776 0.703499 0.205576 0.431833 0.436463C0.296375 0.538044 0.186622 0.670551 0.111538 0.823162C0.036454 0.975774 -0.00183214 1.14416 -0.000193683 1.31458C-0.00164511 1.48194 0.034856 1.64742 0.106512 1.79833L5.31166 12.9772L3.45342 16.9839C3.3752 17.1552 3.3293 17.3398 3.31809 17.5281C3.31575 17.6859 3.35009 17.8421 3.41834 17.9841C3.48659 18.1261 3.58685 18.25 3.71107 18.3458C3.95587 18.5555 4.26716 18.6694 4.58814 18.6665C4.82369 18.6655 5.05368 18.5941 5.24919 18.4614C5.46262 18.3199 5.62866 18.1164 5.72546 17.8778L13.2235 1.79833C13.2944 1.63509 13.3308 1.45867 13.3302 1.2804Z" fill="#2963A3"/>
<path d="M39.5071 12.5118C39.4991 12.6807 39.5263 12.8493 39.5868 13.0069C39.6473 13.1645 39.7399 13.3075 39.8585 13.4267C39.982 13.5416 40.1267 13.6306 40.2844 13.6888C40.442 13.747 40.6095 13.7732 40.7772 13.7659C41.1428 13.7818 41.5002 13.6536 41.774 13.4083C41.9002 13.2915 42.0001 13.1486 42.067 12.9894C42.1339 12.8302 42.1662 12.6584 42.1618 12.4855V1.3908C42.1708 1.21084 42.1431 1.03093 42.0804 0.862232C42.0178 0.693535 41.9214 0.539656 41.7974 0.410152C41.5163 0.179307 41.1644 0.0543847 40.8022 0.0567829C40.4399 0.0591811 40.0897 0.188751 39.8116 0.423298C39.6856 0.549219 39.587 0.700291 39.522 0.866874C39.457 1.03346 39.4271 1.21189 39.4343 1.3908V7.79787C39.4343 8.94064 39.115 9.85819 38.4765 10.5505C38.1492 10.8971 37.7523 11.1689 37.3123 11.3476C36.8724 11.5262 36.3997 11.6077 35.926 11.5864C35.029 11.5864 34.3636 11.3322 33.9298 10.8239C33.4961 10.3157 33.28 9.52693 33.2818 8.45777V1.3908C33.2908 1.21084 33.2631 1.03093 33.2005 0.862232C33.1378 0.693535 33.0414 0.539656 32.9174 0.410152C32.7839 0.287248 32.6274 0.192539 32.4571 0.131589C32.2868 0.0706386 32.1062 0.0446762 31.9258 0.0552264C31.7423 0.044194 31.5584 0.0698661 31.3846 0.130771C31.2109 0.191677 31.0508 0.286617 30.9134 0.410152C30.7882 0.538814 30.6911 0.692558 30.6284 0.861466C30.5656 1.03037 30.5386 1.2107 30.5491 1.3908V8.48932C30.5491 12.0508 32.1505 13.8316 35.3534 13.8316C36.2042 13.8433 37.0441 13.6371 37.7946 13.2322C38.523 12.833 39.1186 12.2258 39.5071 11.4865V12.5118Z" fill="#2963A3"/>
<path d="M15.3551 33.8917L14.5977 33.8364C13.8794 33.7821 13.3442 33.5551 12.992 33.1555C12.6432 32.7559 12.4714 32.1275 12.4714 31.2731V24.6767H15.1339C15.4483 24.7007 15.7604 24.6071 16.0109 24.4138C16.1171 24.3137 16.2 24.191 16.2536 24.0546C16.3071 23.9182 16.33 23.7715 16.3207 23.6251C16.329 23.4788 16.3055 23.3324 16.2521 23.1962C16.1986 23.0599 16.1163 22.9371 16.0109 22.8364C15.7647 22.6328 15.4515 22.5305 15.1339 22.5498H12.461V19.7419C12.4712 19.5607 12.4427 19.3794 12.3776 19.2103C12.3125 19.0411 12.2123 18.888 12.0837 18.7613C11.8092 18.5154 11.4508 18.3871 11.0843 18.4037C10.9052 18.3942 10.7261 18.4207 10.5572 18.4817C10.3883 18.5426 10.2331 18.6367 10.1005 18.7587C9.97531 18.8873 9.8782 19.0411 9.81544 19.21C9.75268 19.3789 9.72567 19.5592 9.73614 19.7393V22.5498H8.11734C7.79965 22.5299 7.48629 22.6323 7.24028 22.8364C7.13405 22.9366 7.05098 23.0592 6.997 23.1955C6.94302 23.3319 6.91945 23.4785 6.92797 23.6251C6.92797 24.3262 7.32443 24.6767 8.11734 24.6767H9.73614V31.0838C9.73614 32.6271 10.0953 33.797 10.8162 34.5857C11.5371 35.3745 12.6224 35.8267 14.0798 35.9371L14.8086 35.9897C15.2321 36.0514 15.6639 35.9701 16.037 35.7583C16.1722 35.6685 16.282 35.5447 16.3555 35.399C16.4289 35.2533 16.4636 35.0908 16.456 34.9275C16.4634 34.7955 16.4441 34.6633 16.3994 34.539C16.3547 34.4147 16.2854 34.3009 16.1957 34.2045C15.959 34.0065 15.6624 33.8961 15.3551 33.8917Z" fill="#2963A3"/>
<path d="M36.0118 16.4976C35.6534 16.4854 35.3031 16.6071 35.028 16.8394C34.8939 16.9653 34.7892 17.1198 34.7217 17.2917C34.6541 17.4637 34.6254 17.6486 34.6376 17.8332V34.683C34.6246 34.8657 34.6529 35.0489 34.7206 35.2189C34.7882 35.3888 34.8934 35.5409 35.028 35.6636C35.3067 35.8877 35.6558 36.0034 36.0118 35.9896C36.3648 36.0049 36.7111 35.8889 36.9851 35.6636C37.1159 35.5385 37.2176 35.3857 37.2828 35.2161C37.3481 35.0465 37.3753 34.8644 37.3625 34.683V17.8332C37.3745 17.6498 37.347 17.466 37.2819 17.2944C37.2167 17.1228 37.1155 16.9676 36.9851 16.8394C36.7147 16.606 36.3672 16.484 36.0118 16.4976Z" fill="#2963A3"/>
<path d="M50.5131 33.6997L45.2247 28.9831L50.0291 24.54C50.1683 24.4229 50.2814 24.2773 50.3608 24.1128C50.4402 23.9482 50.4841 23.7686 50.4897 23.5856C50.4811 23.2483 50.3445 22.9273 50.1081 22.689C49.8716 22.4506 49.5536 22.3133 49.2197 22.3053C48.8832 22.327 48.5664 22.473 48.3296 22.7154L42.1771 28.5204V17.8332C42.1897 17.6498 42.1624 17.4658 42.0972 17.2941C42.032 17.1225 41.9305 16.9673 41.7997 16.8394C41.5303 16.606 41.1836 16.4839 40.829 16.4976C40.4698 16.4853 40.1186 16.6069 39.8426 16.8394C39.7085 16.9653 39.6038 17.1198 39.5363 17.2918C39.4687 17.4637 39.44 17.6487 39.4522 17.8332V34.6593C39.44 34.8443 39.4687 35.0296 39.5362 35.202C39.6037 35.3743 39.7084 35.5293 39.8426 35.6557C40.119 35.8873 40.4701 36.008 40.829 35.9949C41.1833 36.0094 41.53 35.8882 41.7997 35.6557C41.9306 35.5273 42.0321 35.3717 42.0973 35.1996C42.1624 35.0275 42.1897 34.8431 42.1771 34.6593V29.6115L48.8969 35.6084C49.1412 35.8532 49.4716 35.9903 49.8156 35.9896C49.9738 35.9905 50.1303 35.9568 50.2745 35.891C50.4187 35.8253 50.5471 35.7289 50.6511 35.6084C50.8844 35.3667 51.0135 35.0416 51.0102 34.704C51.0095 34.5092 50.9643 34.3173 50.8781 34.1431C50.7918 33.9689 50.667 33.8171 50.5131 33.6997Z" fill="#2963A3"/>
<path d="M15.3343 13.8212H22.33C23.5218 13.8473 24.6994 13.5563 25.7446 12.9773C26.719 12.417 27.5076 11.5782 28.0114 10.5664C28.5603 9.4342 28.8325 8.18555 28.8052 6.92515C28.8357 5.65685 28.5634 4.39979 28.0114 3.26021C27.5092 2.24593 26.7203 1.40505 25.7446 0.844087C24.6994 0.265099 23.5218 -0.0259512 22.33 0.000152312H20.1204C18.9295 -0.0259836 17.7527 0.265083 16.7085 0.844087C15.7316 1.40353 14.9423 2.24482 14.4416 3.26021C13.8888 4.39956 13.6156 5.65664 13.6452 6.92515V10.7794C13.6452 13.001 14.2074 13.8212 15.3343 13.8212ZM17.3695 3.41796C18.0184 2.61171 18.9354 2.20858 20.1204 2.20858H22.33C23.5168 2.20858 24.4346 2.61346 25.0835 3.42322C25.7325 4.23297 26.056 5.40028 26.0543 6.92515C26.0543 8.4693 25.7351 9.64099 25.0966 10.4402C24.4581 11.2395 23.5359 11.64 22.33 11.6417H16.43C16.43 11.6417 16.3962 8.46842 16.3962 6.92515C16.3962 5.38188 16.7215 4.23034 17.3695 3.41796Z" fill="#2963A3"/>
<path d="M29.6094 23.023C28.5657 22.4423 27.3887 22.1502 26.1974 22.1764H23.9878C22.7959 22.1515 21.6184 22.4434 20.5733 23.023C19.5977 23.5829 18.8087 24.4229 18.3064 25.4365C17.7604 26.5777 17.4927 27.8343 17.5257 29.1014C17.4952 30.3607 17.7629 31.609 18.3064 32.7427C18.8095 33.755 19.5983 34.594 20.5733 35.1536C21.6186 35.7322 22.7961 36.0232 23.9878 35.9975H30.9836C32.1131 35.9975 32.6726 35.1772 32.6726 32.9478V29.1014C32.7029 27.8328 32.4297 26.5756 31.8762 25.4365C31.3756 24.4218 30.5862 23.5813 29.6094 23.023ZM29.8879 33.818H23.9878C22.7855 33.818 21.8633 33.4184 21.2213 32.6191C20.5793 31.8199 20.261 30.6473 20.2662 29.1014C20.2662 27.5731 20.5898 26.4057 21.2369 25.5995C21.8841 24.7932 22.8011 24.3884 23.9878 24.3849H26.1974C27.3842 24.3849 28.302 24.7897 28.951 25.5995C29.5999 26.4092 29.9261 27.5766 29.9295 29.1014C29.9295 30.6447 29.8879 33.818 29.8879 33.818Z" fill="#2963A3"/>
</g>
<defs>
<clipPath id="clip0_4492_2245">
<rect width="51" height="36" fill="white"/>
</clipPath>
</defs>
</svg>
