<svg width="16" height="14" viewBox="0 0 16 14" fill="none" xmlns="http://www.w3.org/2000/svg">
<g clip-path="url(#clip0_4492_2045)">
<path d="M0.282608 6.76936L3.96933 8.16383L5.39632 12.8146C5.48763 13.1125 5.84704 13.2226 6.0856 13.0249L8.14064 11.3271C8.35606 11.1492 8.66288 11.1404 8.88801 11.306L12.5946 14.0331C12.8498 14.2211 13.2113 14.0794 13.2753 13.7669L15.9906 0.530734C16.0604 0.189359 15.7295 -0.0954258 15.4087 0.0302926L0.278288 5.94549C-0.0950996 6.09142 -0.0918463 6.62716 0.282608 6.76936ZM5.16635 7.42152L12.3716 2.92425C12.5011 2.84366 12.6343 3.0211 12.5231 3.12564L6.5767 8.72729C6.36768 8.92446 6.23286 9.18833 6.19467 9.47474L5.99211 10.996C5.96528 11.1991 5.68373 11.2193 5.62843 11.0227L4.84939 8.24863C4.76016 7.93223 4.89019 7.59426 5.16635 7.42152Z" fill="#333333"/>
</g>
<defs>
<clipPath id="clip0_4492_2045">
<rect width="16" height="14" fill="white"/>
</clipPath>
</defs>
</svg>
