<svg width="18" height="18" viewBox="0 0 18 18" fill="none" xmlns="http://www.w3.org/2000/svg">
<g clip-path="url(#clip0_4492_2049)">
<path d="M17.4702 3.71327C16.834 3.99468 16.1593 4.1795 15.4685 4.26161C16.1967 3.82613 16.7416 3.14078 17.0019 2.33327C16.3185 2.73994 15.5694 3.02494 14.7885 3.17911C14.264 2.61792 13.5688 2.24574 12.811 2.12043C12.0532 1.99511 11.2752 2.12368 10.5979 2.48615C9.9207 2.84862 9.3822 3.42468 9.06614 4.12477C8.75008 4.82486 8.67417 5.60976 8.85021 6.35744C7.46447 6.28798 6.10882 5.92788 4.87128 5.30049C3.63374 4.67311 2.54198 3.79248 1.66688 2.71577C1.35712 3.24781 1.19434 3.85263 1.19521 4.46827C1.19521 5.67661 1.81021 6.74411 2.74521 7.36911C2.19188 7.35169 1.65074 7.20226 1.16688 6.93327V6.9766C1.16704 7.78136 1.44552 8.56129 1.95508 9.18415C2.46465 9.80702 3.17394 10.2345 3.96271 10.3941C3.44905 10.5333 2.91046 10.5538 2.38771 10.4541C2.6101 11.1468 3.04355 11.7526 3.62737 12.1867C4.21119 12.6208 4.91615 12.8614 5.64354 12.8749C4.92061 13.4427 4.09286 13.8624 3.20761 14.1101C2.32236 14.3577 1.39698 14.4285 0.484375 14.3183C2.07746 15.3428 3.93196 15.8867 5.82604 15.8849C12.2369 15.8849 15.7427 10.5741 15.7427 5.96827C15.7427 5.81827 15.7385 5.66661 15.7319 5.51827C16.4143 5.02508 17.0032 4.41412 17.471 3.71411L17.4702 3.71327Z" fill="#333333"/>
</g>
<defs>
<clipPath id="clip0_4492_2049">
<rect width="18" height="18" fill="white"/>
</clipPath>
</defs>
</svg>
