<svg width="20" height="12" viewBox="0 0 20 12" fill="none" xmlns="http://www.w3.org/2000/svg">
<g clip-path="url(#clip0_4492_2041)">
<path d="M19.8217 10.5411C19.768 10.4479 19.4355 9.69956 17.8353 8.16152C16.1602 6.55099 16.3852 6.81251 18.4029 4.02774C19.6317 2.33176 20.123 1.29605 19.9692 0.853278C19.823 0.431225 18.9192 0.542564 18.9192 0.542564L15.9139 0.560689C15.9139 0.560689 15.6914 0.529618 15.5252 0.631894C15.3639 0.732876 15.2601 0.965912 15.2601 0.965912C15.2601 0.965912 14.7839 2.27868 14.1488 3.39466C12.81 5.74961 12.2737 5.87389 12.0549 5.7276C11.5461 5.38711 11.6736 4.35787 11.6736 3.62769C11.6736 1.34524 12.0074 0.39368 11.0223 0.147699C10.6948 0.0661363 10.4548 0.0117614 9.61848 0.00269895C8.54591 -0.00895281 7.63709 0.00658289 7.1233 0.266806C6.78078 0.440288 6.51701 0.827385 6.67827 0.849394C6.87703 0.876582 7.32707 0.974974 7.56583 1.31158C7.87461 1.74529 7.86336 2.72144 7.86336 2.72144C7.86336 2.72144 8.04087 5.40782 7.44958 5.74184C7.0433 5.97099 6.487 5.50363 5.29317 3.36618C4.68187 2.2722 4.21934 1.06172 4.21934 1.06172C4.21934 1.06172 4.13058 0.836448 3.97182 0.716046C3.77931 0.569752 3.50929 0.523145 3.50929 0.523145L0.651577 0.54127C0.651577 0.54127 0.222795 0.554216 0.0652839 0.747118C-0.0747264 0.919305 0.054033 1.27404 0.054033 1.27404C0.054033 1.27404 2.2917 6.6947 4.82438 9.42768C7.1483 11.9328 9.786 11.7684 9.786 11.7684H10.9811C10.9811 11.7684 11.3424 11.727 11.5261 11.5211C11.6961 11.3321 11.6899 10.9774 11.6899 10.9774C11.6899 10.9774 11.6661 9.31634 12.4112 9.07166C13.145 8.83085 14.0876 10.677 15.0864 11.3878C15.8414 11.925 16.4152 11.8072 16.4152 11.8072L19.0867 11.7684C19.0867 11.7684 20.4843 11.6791 19.8217 10.5411Z" fill="#333333"/>
</g>
<defs>
<clipPath id="clip0_4492_2041">
<rect width="20" height="12" fill="white"/>
</clipPath>
</defs>
</svg>
